<svg id="visual" viewBox="0 0 960 540" width="960" height="540" xmlns="http://www.w3.org/2000/svg" xmlns:xlink="http://www.w3.org/1999/xlink" version="1.1"><rect x="0" y="0" width="960" height="540" fill="#3F51B5"></rect><defs><linearGradient id="grad1_0" x1="43.8%" y1="100%" x2="100%" y2="0%"><stop offset="14.444444444444446%" stop-color="#3f51b5" stop-opacity="1"></stop><stop offset="85.55555555555554%" stop-color="#3f51b5" stop-opacity="1"></stop></linearGradient></defs><defs><linearGradient id="grad2_0" x1="0%" y1="100%" x2="56.3%" y2="0%"><stop offset="14.444444444444446%" stop-color="#3f51b5" stop-opacity="1"></stop><stop offset="85.55555555555554%" stop-color="#3f51b5" stop-opacity="1"></stop></linearGradient></defs><g transform="translate(960, 540)"><path d="M-378 0C-381.4 -58.1 -384.9 -116.2 -349.2 -144.7C-313.6 -173.1 -238.9 -171.9 -200.8 -200.8C-162.7 -229.7 -161.3 -288.8 -133.9 -323.4C-106.6 -357.9 -53.3 -368 0 -378L0 0Z" fill="#ffffff"></path></g><g transform="translate(0, 0)"><path d="M378 0C359 50.1 339.9 100.2 304.9 126.3C269.8 152.4 218.8 154.5 194.5 194.5C170.1 234.4 172.6 312.3 144.7 349.2C116.7 386.1 58.4 382.1 0 378L0 0Z" fill="#ffffff"></path></g></svg>