<svg id="visual" viewBox="0 0 960 540" width="960" height="540" xmlns="http://www.w3.org/2000/svg" xmlns:xlink="http://www.w3.org/1999/xlink" version="1.1"><rect x="0" y="0" width="960" height="540" fill="#ffffff"></rect><path d="M0 363L22.8 360.5C45.7 358 91.3 353 137 349C182.7 345 228.3 342 274 351.2C319.7 360.3 365.3 381.7 411.2 379.8C457 378 503 353 548.8 343.2C594.7 333.3 640.3 338.7 686 345.5C731.7 352.3 777.3 360.7 823 368.5C868.7 376.3 914.3 383.7 937.2 387.3L960 391L960 541L937.2 541C914.3 541 868.7 541 823 541C777.3 541 731.7 541 686 541C640.3 541 594.7 541 548.8 541C503 541 457 541 411.2 541C365.3 541 319.7 541 274 541C228.3 541 182.7 541 137 541C91.3 541 45.7 541 22.8 541L0 541Z" fill="#7662f9"></path><path d="M0 425L22.8 418C45.7 411 91.3 397 137 393.2C182.7 389.3 228.3 395.7 274 393.2C319.7 390.7 365.3 379.3 411.2 374.5C457 369.7 503 371.3 548.8 381.8C594.7 392.3 640.3 411.7 686 411.5C731.7 411.3 777.3 391.7 823 378.8C868.7 366 914.3 360 937.2 357L960 354L960 541L937.2 541C914.3 541 868.7 541 823 541C777.3 541 731.7 541 686 541C640.3 541 594.7 541 548.8 541C503 541 457 541 411.2 541C365.3 541 319.7 541 274 541C228.3 541 182.7 541 137 541C91.3 541 45.7 541 22.8 541L0 541Z" fill="#665ee8"></path><path d="M0 430L22.8 429.3C45.7 428.7 91.3 427.3 137 427.3C182.7 427.3 228.3 428.7 274 428.8C319.7 429 365.3 428 411.2 431C457 434 503 441 548.8 436.5C594.7 432 640.3 416 686 415.7C731.7 415.3 777.3 430.7 823 438.5C868.7 446.3 914.3 446.7 937.2 446.8L960 447L960 541L937.2 541C914.3 541 868.7 541 823 541C777.3 541 731.7 541 686 541C640.3 541 594.7 541 548.8 541C503 541 457 541 411.2 541C365.3 541 319.7 541 274 541C228.3 541 182.7 541 137 541C91.3 541 45.7 541 22.8 541L0 541Z" fill="#585ad7"></path><path d="M0 478L22.8 476.2C45.7 474.3 91.3 470.7 137 465.2C182.7 459.7 228.3 452.3 274 451.2C319.7 450 365.3 455 411.2 454.2C457 453.3 503 446.7 548.8 446.7C594.7 446.7 640.3 453.3 686 455.8C731.7 458.3 777.3 456.7 823 453.5C868.7 450.3 914.3 445.7 937.2 443.3L960 441L960 541L937.2 541C914.3 541 868.7 541 823 541C777.3 541 731.7 541 686 541C640.3 541 594.7 541 548.8 541C503 541 457 541 411.2 541C365.3 541 319.7 541 274 541C228.3 541 182.7 541 137 541C91.3 541 45.7 541 22.8 541L0 541Z" fill="#4b56c6"></path><path d="M0 481L22.8 483.3C45.7 485.7 91.3 490.3 137 493C182.7 495.7 228.3 496.3 274 492.5C319.7 488.7 365.3 480.3 411.2 481C457 481.7 503 491.3 548.8 494.2C594.7 497 640.3 493 686 494.7C731.7 496.3 777.3 503.7 823 506.2C868.7 508.7 914.3 506.3 937.2 505.2L960 504L960 541L937.2 541C914.3 541 868.7 541 823 541C777.3 541 731.7 541 686 541C640.3 541 594.7 541 548.8 541C503 541 457 541 411.2 541C365.3 541 319.7 541 274 541C228.3 541 182.7 541 137 541C91.3 541 45.7 541 22.8 541L0 541Z" fill="#3f51b5"></path></svg>