<svg id="visual" viewBox="0 0 960 540" width="960" height="540" xmlns="http://www.w3.org/2000/svg" xmlns:xlink="http://www.w3.org/1999/xlink" version="1.1"><rect x="0" y="0" width="960" height="540" fill="#ffffff"></rect><path d="M0 200L20 188.2C40 176.3 80 152.7 120 137.3C160 122 200 115 240 113C280 111 320 114 360 135.7C400 157.3 440 197.7 480 202.8C520 208 560 178 600 156C640 134 680 120 720 113.5C760 107 800 108 840 109.3C880 110.7 920 112.3 940 113.2L960 114L960 0L940 0C920 0 880 0 840 0C800 0 760 0 720 0C680 0 640 0 600 0C560 0 520 0 480 0C440 0 400 0 360 0C320 0 280 0 240 0C200 0 160 0 120 0C80 0 40 0 20 0L0 0Z" fill="#3F51B5"></path></svg>