<svg id="visual" viewBox="0 0 900 600" width="900" height="600" xmlns="http://www.w3.org/2000/svg" xmlns:xlink="http://www.w3.org/1999/xlink" version="1.1"><rect x="0" y="0" width="900" height="600" fill="#ffffff"></rect><path d="M0 413L21.5 413C43 413 86 413 128.8 404.3C171.7 395.7 214.3 378.3 257.2 370.7C300 363 343 365 385.8 369.8C428.7 374.7 471.3 382.3 514.2 394.3C557 406.3 600 422.7 642.8 425C685.7 427.3 728.3 415.7 771.2 405.5C814 395.3 857 386.7 878.5 382.3L900 378L900 601L878.5 601C857 601 814 601 771.2 601C728.3 601 685.7 601 642.8 601C600 601 557 601 514.2 601C471.3 601 428.7 601 385.8 601C343 601 300 601 257.2 601C214.3 601 171.7 601 128.8 601C86 601 43 601 21.5 601L0 601Z" fill="#7662f9"></path><path d="M0 476L21.5 471.5C43 467 86 458 128.8 446C171.7 434 214.3 419 257.2 412.5C300 406 343 408 385.8 415.2C428.7 422.3 471.3 434.7 514.2 433.5C557 432.3 600 417.7 642.8 419.8C685.7 422 728.3 441 771.2 445.2C814 449.3 857 438.7 878.5 433.3L900 428L900 601L878.5 601C857 601 814 601 771.2 601C728.3 601 685.7 601 642.8 601C600 601 557 601 514.2 601C471.3 601 428.7 601 385.8 601C343 601 300 601 257.2 601C214.3 601 171.7 601 128.8 601C86 601 43 601 21.5 601L0 601Z" fill="#665ee8"></path><path d="M0 445L21.5 455C43 465 86 485 128.8 495.5C171.7 506 214.3 507 257.2 500C300 493 343 478 385.8 476C428.7 474 471.3 485 514.2 492.8C557 500.7 600 505.3 642.8 497.5C685.7 489.7 728.3 469.3 771.2 461.8C814 454.3 857 459.7 878.5 462.3L900 465L900 601L878.5 601C857 601 814 601 771.2 601C728.3 601 685.7 601 642.8 601C600 601 557 601 514.2 601C471.3 601 428.7 601 385.8 601C343 601 300 601 257.2 601C214.3 601 171.7 601 128.8 601C86 601 43 601 21.5 601L0 601Z" fill="#585ad7"></path><path d="M0 508L21.5 512.8C43 517.7 86 527.3 128.8 527.5C171.7 527.7 214.3 518.3 257.2 514.2C300 510 343 511 385.8 511.7C428.7 512.3 471.3 512.7 514.2 511.8C557 511 600 509 642.8 509.8C685.7 510.7 728.3 514.3 771.2 515.3C814 516.3 857 514.7 878.5 513.8L900 513L900 601L878.5 601C857 601 814 601 771.2 601C728.3 601 685.7 601 642.8 601C600 601 557 601 514.2 601C471.3 601 428.7 601 385.8 601C343 601 300 601 257.2 601C214.3 601 171.7 601 128.8 601C86 601 43 601 21.5 601L0 601Z" fill="#4b56c6"></path><path d="M0 547L21.5 549.5C43 552 86 557 128.8 557.3C171.7 557.7 214.3 553.3 257.2 549C300 544.7 343 540.3 385.8 544C428.7 547.7 471.3 559.3 514.2 562.3C557 565.3 600 559.7 642.8 558C685.7 556.3 728.3 558.7 771.2 561C814 563.3 857 565.7 878.5 566.8L900 568L900 601L878.5 601C857 601 814 601 771.2 601C728.3 601 685.7 601 642.8 601C600 601 557 601 514.2 601C471.3 601 428.7 601 385.8 601C343 601 300 601 257.2 601C214.3 601 171.7 601 128.8 601C86 601 43 601 21.5 601L0 601Z" fill="#3f51b5"></path></svg>