<?xml version="1.0" encoding="utf-8"?>
<!-- Generator: Adobe Illustrator 22.0.0, SVG Export Plug-In . SVG Version: 6.00 Build 0)  -->
<svg version="1.1" xmlns="http://www.w3.org/2000/svg" xmlns:xlink="http://www.w3.org/1999/xlink" x="0px" y="0px"
	 viewBox="0 0 1920 969.8" style="enable-background:new 0 0 1920 969.8;" xml:space="preserve">
<style type="text/css">
	.st0{fill:#FFFFFF;}
	.st1{opacity:0.1;fill:#3F51B5;}
	.st2{opacity:0.1;fill:#FF9A28;}
	.st3{display:none;}
	.st4{display:inline;fill:#3F51B5;}
	.st5{display:inline;fill:none;stroke:#3F51B5;stroke-width:7;stroke-miterlimit:10;}
	.st6{display:inline;fill:none;stroke:#3F51B5;stroke-width:5;stroke-miterlimit:10;}
	.st7{display:inline;fill:none;stroke:#FF9A28;stroke-width:7;stroke-miterlimit:10;}
	.st8{display:inline;fill:#FF9A28;}
	.st9{display:inline;fill:none;stroke:#FF9A28;stroke-width:5;stroke-miterlimit:10;}
</style>
<g id="Capa_2">
	<rect class="st0" width="1920" height="969.8"/>
</g>
<g id="Capa_1">
	<circle class="st1" cx="260.5" cy="645.9" r="58.5"/>
	<circle class="st1" cx="397.2" cy="134.7" r="58.5"/>
	<circle class="st1" cx="877.1" cy="601.9" r="58.5"/>
	<path class="st1" d="M1609.7,0c4.3,4,12.5,12.6,16.7,26.1c0,0,2.6,8.8,2.6,17.4c0,32.3-26.2,58.5-58.5,58.5
		c-32.3,0-58.5-26.2-58.5-58.5c0-8.6,2.6-17.4,2.6-17.4c4.2-13.5,12.4-22.1,16.7-26.1C1557.5,0,1583.6,0,1609.7,0z"/>
	<circle class="st2" cx="1641.6" cy="852.9" r="58.5"/>
	<circle class="st2" cx="712.6" cy="345.9" r="58.5"/>
	<path class="st2" d="M400.6,969.8c-1.6-2.8-3.5-6.6-5-11.5c0,0-2.6-8.5-2.6-17.4c0-32.3,26.2-58.5,58.5-58.5
		c32.3,0,58.5,26.2,58.5,58.5c0,8.9-2.6,17.4-2.6,17.4c-1.5,4.9-3.4,8.8-5,11.5C468.4,969.8,434.5,969.8,400.6,969.8z"/>
</g>
<g id="Capa_3" class="st3">
	<circle class="st4" cx="246.1" cy="270.5" r="171"/>
	<circle class="st5" cx="942.1" cy="738.9" r="171"/>
	<circle class="st4" cx="1753.6" cy="341.4" r="91.5"/>
	<circle class="st6" cx="1284.1" cy="211" r="91.5"/>
	<circle class="st7" cx="807.4" cy="794.9" r="115"/>
	<circle class="st8" cx="345.6" cy="387.9" r="85.5"/>
	<circle class="st8" cx="1606.1" cy="443.4" r="35.5"/>
	<circle class="st9" cx="1212.7" cy="154.7" r="56.3"/>
	<circle class="st8" cx="125" cy="823.4" r="15"/>
	<circle class="st8" cx="756.1" cy="179" r="15"/>
	<circle class="st8" cx="1768.6" cy="837.9" r="15"/>
	<circle class="st8" cx="1292" cy="602.7" r="15"/>
	<circle class="st4" cx="522.6" cy="617.7" r="15"/>
	<circle class="st4" cx="993.8" cy="360.9" r="15"/>
	<circle class="st4" cx="1387.6" cy="867.9" r="15"/>
	<circle class="st4" cx="1830" cy="104.5" r="15"/>
</g>
</svg>
